<svg id="Laag_1" data-name="Laag 1" xmlns="http://www.w3.org/2000/svg" viewBox="0 0 787.87 137.43"><defs><style>.cls-1{fill:#fff;}</style></defs><path class="cls-1" d="M447.46,272.81a32.13,32.13,0,0,1,7.94.88,29.55,29.55,0,0,1,6.17,2.28l-2.28,7.49a34.06,34.06,0,0,0-5.8-2.24,20.63,20.63,0,0,0-5.44-.77,9.31,9.31,0,0,0-5.48,1.4,4.38,4.38,0,0,0-1.95,3.75,4.29,4.29,0,0,0,1.69,3.67,19.23,19.23,0,0,0,5.44,2.43l4.41,1.39a20.22,20.22,0,0,1,8.64,5.22,11.83,11.83,0,0,1,3.13,8.31,13.73,13.73,0,0,1-1.11,5.51,12.24,12.24,0,0,1-3.3,4.49,16,16,0,0,1-5.52,3,24.27,24.27,0,0,1-7.72,1.11,34.05,34.05,0,0,1-15.21-3.39l2.28-7.49a36.78,36.78,0,0,0,6.17,2.38,23.07,23.07,0,0,0,6.32.85,10,10,0,0,0,5.88-1.43,4.65,4.65,0,0,0,2-4,4.74,4.74,0,0,0-.33-1.73,4.23,4.23,0,0,0-1.22-1.61,11.67,11.67,0,0,0-2.38-1.55,25.85,25.85,0,0,0-3.94-1.51L442,299.93a29.06,29.06,0,0,1-4.71-2.06,15.51,15.51,0,0,1-3.64-2.72,11.08,11.08,0,0,1-2.35-3.64,13,13,0,0,1-.84-4.88,13.68,13.68,0,0,1,1.1-5.55,11.77,11.77,0,0,1,3.27-4.38,15.62,15.62,0,0,1,5.37-2.87A24,24,0,0,1,447.46,272.81Z" transform="translate(-35.23 -226.63)"/><path class="cls-1" d="M544.64,273.61h12.72l6.61,21.1c.3.93.6,1.94.92,3s.63,2.15.92,3.23.56,2.13.81,3.16.44,2,.59,2.87h.29c.15-.78.34-1.7.59-2.76s.52-2.14.81-3.27.59-2.23.88-3.31.56-2.06.81-2.94l6.4-21.1H589.7l3.46,46.32h-9.48q-.45-7.65-.89-15.29t-.59-15.44l-.07-6h-.22c-.64,2.7-1.33,5.51-2.09,8.45s-1.49,5.52-2.17,7.72l-6.55,20.59h-7.79l-6.69-20.66q-1.25-4-2.35-8.38t-1.76-7.72h-.22c0,1.76,0,3.61-.08,5.55s-.11,3.86-.18,5.77-.15,3.79-.22,5.63-.16,3.51-.26,5l-.88,14.78h-9.34Z" transform="translate(-35.23 -226.63)"/><path class="cls-1" d="M693.72,272.81a25.34,25.34,0,0,1,9.12,1.61,20.32,20.32,0,0,1,7.2,4.67,21.55,21.55,0,0,1,4.74,7.54,28.27,28.27,0,0,1,1.73,10.21,26.65,26.65,0,0,1-1.77,10,21.92,21.92,0,0,1-4.85,7.5,21,21,0,0,1-7.31,4.74,25,25,0,0,1-9.15,1.66,25.47,25.47,0,0,1-9.12-1.59,19.7,19.7,0,0,1-7.2-4.63,21.61,21.61,0,0,1-4.74-7.49,27.84,27.84,0,0,1-1.73-10.19,27.12,27.12,0,0,1,1.76-10,22.43,22.43,0,0,1,4.85-7.57,20.84,20.84,0,0,1,7.32-4.78A25,25,0,0,1,693.72,272.81Zm-12.42,24a23.26,23.26,0,0,0,1,7.17,14.86,14.86,0,0,0,2.68,5.07,10.77,10.77,0,0,0,3.94,3,11.73,11.73,0,0,0,4.81,1,11.57,11.57,0,0,0,4.74-1,10.13,10.13,0,0,0,3.86-3,15.09,15.09,0,0,0,2.57-5.07,23.94,23.94,0,0,0,1-7.17,24.21,24.21,0,0,0-1-7.35,15,15,0,0,0-2.69-5.11,10.31,10.31,0,0,0-3.93-3,12.08,12.08,0,0,0-4.81-1,11.09,11.09,0,0,0-4.78,1,10.55,10.55,0,0,0-3.82,3,15.41,15.41,0,0,0-2.58,5.11A24.68,24.68,0,0,0,681.3,296.84Z" transform="translate(-35.23 -226.63)"/><path class="cls-1" d="M794.36,273.61h10.07V312H823.1v7.94H794.36Z" transform="translate(-35.23 -226.63)"/><path class="cls-1" d="M110.86,246.66A67.93,67.93,0,0,0,99.7,261.37a42.36,42.36,0,0,1,4,59.26A41.32,41.32,0,0,1,98.2,326a67.87,67.87,0,0,0,12.69,17.53,68.59,68.59,0,0,0,86.21,8.68,68.43,68.43,0,0,0,99.41-25.1,42.35,42.35,0,0,1-.89-64.61,68.42,68.42,0,0,0-97.72-24A68.58,68.58,0,0,0,110.86,246.66ZM263.44,268.4A38.85,38.85,0,0,1,208.12,323c-.13-.14-.25-.29-.39-.43a14.81,14.81,0,0,0-20.95,0,38.85,38.85,0,1,1,0-54.94,16,16,0,0,0,21.72.29A38.91,38.91,0,0,1,263.44,268.4Z" transform="translate(-35.23 -226.63)"/><path class="cls-1" d="M99.11,316.69a36.32,36.32,0,1,0-51.22,3.9A36.32,36.32,0,0,0,99.11,316.69Z" transform="translate(-35.23 -226.63)"/><path class="cls-1" d="M295.69,317.79a36.32,36.32,0,1,0,4.38-51.17A36.32,36.32,0,0,0,295.69,317.79Z" transform="translate(-35.23 -226.63)"/></svg>